<svg width="68" height="69" viewBox="0 0 68 69" fill="none" xmlns="http://www.w3.org/2000/svg">
<g id="Icons/coding">
<g id="Group">
<path id="Vector" d="M63.2188 7.52759H4.78125C3.79531 7.52868 2.85007 7.92082 2.1529 8.61799C1.45574 9.31515 1.06359 10.2604 1.0625 11.2463V48.4338C1.06359 49.4198 1.45574 50.365 2.1529 51.0622C2.85007 51.7593 3.79531 52.1515 4.78125 52.1526H26.0552L24.7802 55.3401H19.125C18.8432 55.3401 18.573 55.452 18.3737 55.6513C18.1744 55.8505 18.0625 56.1208 18.0625 56.4026V58.5276H11.6875C11.4057 58.5276 11.1355 58.6395 10.9362 58.8388C10.7369 59.038 10.625 59.3083 10.625 59.5901C10.625 59.8719 10.7369 60.1421 10.9362 60.3414C11.1355 60.5406 11.4057 60.6526 11.6875 60.6526H56.3125C56.5943 60.6526 56.8645 60.5406 57.0638 60.3414C57.2631 60.1421 57.375 59.8719 57.375 59.5901C57.375 59.3083 57.2631 59.038 57.0638 58.8388C56.8645 58.6395 56.5943 58.5276 56.3125 58.5276H49.9375V56.4026C49.9375 56.1208 49.8256 55.8505 49.6263 55.6513C49.427 55.452 49.1568 55.3401 48.875 55.3401H43.2198L41.9448 52.1526H63.2188C64.2047 52.1515 65.1499 51.7593 65.8471 51.0622C66.5443 50.365 66.9364 49.4198 66.9375 48.4338V11.2463C66.9364 10.2604 66.5443 9.31515 65.8471 8.61799C65.1499 7.92082 64.2047 7.52868 63.2188 7.52759ZM47.8125 57.4651V58.5276H20.1875V57.4651H47.8125ZM27.0698 55.3401L28.3448 52.1526H39.6552L40.9302 55.3401H27.0698ZM64.8125 48.4338C64.8121 48.8564 64.6441 49.2616 64.3453 49.5604C64.0465 49.8592 63.6413 50.0272 63.2188 50.0276H4.78125C4.35867 50.0272 3.9535 49.8592 3.65469 49.5604C3.35588 49.2616 3.18785 48.8564 3.1875 48.4338V45.7776H64.8125V48.4338ZM64.8125 43.6526H3.1875V11.2463C3.18785 10.8238 3.35588 10.4186 3.65469 10.1198C3.9535 9.82097 4.35867 9.65294 4.78125 9.65259H63.2188C63.6413 9.65294 64.0465 9.82097 64.3453 10.1198C64.6441 10.4186 64.8121 10.8238 64.8125 11.2463V43.6526Z" fill="#FFB400"/>
<path id="Vector_2" d="M29.1669 34.9784C29.2836 35.0549 29.4142 35.1078 29.5513 35.1338C29.6884 35.1599 29.8292 35.1587 29.9659 35.1304C30.1025 35.102 30.2322 35.047 30.3475 34.9685C30.4629 34.89 30.5617 34.7896 30.6382 34.6729L39.0054 21.9229C39.1601 21.6873 39.2148 21.4 39.1575 21.124C39.1003 20.8481 38.9358 20.6062 38.7002 20.4516C38.4646 20.297 38.1773 20.2423 37.9014 20.2995C37.6254 20.3567 37.3836 20.5212 37.2289 20.7568L28.8617 33.5068C28.7851 33.6235 28.7322 33.7541 28.7061 33.8912C28.68 34.0283 28.6811 34.1692 28.7095 34.3058C28.7378 34.4425 28.7928 34.5722 28.8713 34.6876C28.9498 34.803 29.0503 34.9018 29.1669 34.9784Z" fill="#FFB400"/>
<path id="Vector_3" d="M40.7573 34.9063C40.9738 35.0867 41.2531 35.1737 41.5337 35.1482C41.8143 35.1226 42.0733 34.9867 42.2537 34.7702L47.5662 28.3952C47.7253 28.2043 47.8124 27.9636 47.8124 27.7151C47.8124 27.4665 47.7253 27.2259 47.5662 27.0349L42.2537 20.6599C42.1647 20.5518 42.0552 20.4624 41.9315 20.3968C41.8077 20.3312 41.6723 20.2907 41.5329 20.2776C41.3934 20.2645 41.2528 20.2791 41.119 20.3206C40.9853 20.362 40.861 20.4295 40.7535 20.5192C40.6459 20.6088 40.5571 20.7188 40.4922 20.8429C40.4272 20.967 40.3875 21.1027 40.3752 21.2422C40.3629 21.3817 40.3783 21.5222 40.4205 21.6557C40.4627 21.7893 40.5309 21.9131 40.6212 22.0202L45.3668 27.7151L40.6212 33.4099C40.4408 33.6264 40.3538 33.9057 40.3793 34.1863C40.4049 34.467 40.5408 34.7259 40.7573 34.9063Z" fill="#FFB400"/>
<path id="Vector_4" d="M25.7462 34.7702C25.8352 34.8783 25.9448 34.9677 26.0685 35.0333C26.1922 35.0989 26.3276 35.1394 26.4671 35.1525C26.6065 35.1656 26.7471 35.151 26.8809 35.1095C27.0146 35.0681 27.1389 35.0006 27.2465 34.911C27.354 34.8213 27.4428 34.7113 27.5078 34.5872C27.5727 34.4631 27.6124 34.3274 27.6247 34.1879C27.637 34.0485 27.6216 33.9079 27.5794 33.7744C27.5372 33.6409 27.469 33.517 27.3787 33.4099L22.6331 27.7151L27.3787 22.0202C27.469 21.9131 27.5372 21.7893 27.5794 21.6557C27.6216 21.5222 27.637 21.3817 27.6247 21.2422C27.6124 21.1027 27.5727 20.967 27.5078 20.8429C27.4428 20.7188 27.354 20.6088 27.2465 20.5192C27.1389 20.4295 27.0146 20.362 26.8809 20.3206C26.7471 20.2791 26.6065 20.2645 26.4671 20.2776C26.3276 20.2907 26.1922 20.3312 26.0685 20.3968C25.9448 20.4624 25.8352 20.5518 25.7462 20.6599L20.4337 27.0349C20.2746 27.2259 20.1875 27.4665 20.1875 27.7151C20.1875 27.9636 20.2746 28.2043 20.4337 28.3952L25.7462 34.7702Z" fill="#FFB400"/>
</g>
</g>
</svg>
